<?xml version="1.0" standalone="no"?><!DOCTYPE svg PUBLIC "-//W3C//DTD SVG 1.1//EN" "http://www.w3.org/Graphics/SVG/1.1/DTD/svg11.dtd"><svg t="1577627585322" class="icon" viewBox="0 0 1024 1024" version="1.1" xmlns="http://www.w3.org/2000/svg" p-id="3535" xmlns:xlink="http://www.w3.org/1999/xlink" width="200" height="200"><defs><style type="text/css"></style></defs><path d="M247.296 712.704H166.912c-14.336 0-25.6-11.264-25.6-25.6V357.376c0-14.336 11.264-25.6 25.6-25.6s25.6 11.264 25.6 25.6v304.128h54.784c14.336 0 25.6 11.264 25.6 25.6s-11.264 25.6-25.6 25.6zM450.56 712.704H338.944c-14.336 0-25.6-11.264-25.6-25.6V357.376c0-14.336 11.264-25.6 25.6-25.6H450.56c14.336 0 25.6 11.264 25.6 25.6v329.728c0 14.336-11.264 25.6-25.6 25.6z m-86.016-51.2H424.96V382.976H364.544v278.528zM866.304 712.704h-111.616c-14.336 0-25.6-11.264-25.6-25.6V357.376c0-14.336 11.264-25.6 25.6-25.6h111.616c14.336 0 25.6 11.264 25.6 25.6v329.728c0 14.336-11.264 25.6-25.6 25.6z m-86.016-51.2h60.416V382.976h-60.416v278.528zM660.48 712.704h-112.128c-14.336 0-25.6-11.264-25.6-25.6V357.376c0-14.336 11.264-25.6 25.6-25.6H660.48c14.336 0 25.6 11.264 25.6 25.6v100.864c0 14.336-11.264 25.6-25.6 25.6s-25.6-11.264-25.6-25.6V382.976h-60.928v278.528H634.88v-70.144h-2.048c-14.336 0-25.6-11.264-25.6-25.6s11.264-25.6 25.6-25.6h27.648c14.336 0 25.6 11.264 25.6 25.6v121.344c0 14.336-11.264 25.6-25.6 25.6z" p-id="3536"></path><path d="M994.816 946.688H35.328c-14.336 0-25.6-11.264-25.6-25.6V122.88c0-14.336 11.264-25.6 25.6-25.6h959.488c14.336 0 25.6 11.264 25.6 25.6v798.208c0 14.336-11.264 25.6-25.6 25.6z m-933.888-51.2h908.288V148.48H60.928v747.008z" p-id="3537"></path></svg>